<?xml version="1.0" encoding="utf-8"?>
<!-- Generator: Adobe Illustrator 18.1.1, SVG Export Plug-In . SVG Version: 6.00 Build 0)  -->
<!DOCTYPE svg PUBLIC "-//W3C//DTD SVG 1.1//EN" "http://www.w3.org/Graphics/SVG/1.1/DTD/svg11.dtd">
<svg version="1.1" id="Layer_1" xmlns="http://www.w3.org/2000/svg" xmlns:xlink="http://www.w3.org/1999/xlink" x="0px" y="0px"
	 viewBox="0 0 1033 162" enable-background="new 0 0 1033 162" xml:space="preserve">
<g>
	<defs>
		<rect id="SVGID_1_" x="5" y="6.5" width="1022.9" height="150.5"/>
	</defs>
	<clipPath id="SVGID_2_">
		<use xlink:href="#SVGID_1_"  overflow="visible"/>
	</clipPath>
	<path clip-path="url(#SVGID_2_)" fill="none" stroke="#FFFFFF" stroke-width="2.25" d="M933.4,9.6v144.1h17.2v-65h59v65h17.2V9.6
		h-17.2v61.9h-59V9.6H933.4z M894.7,48.5c-2.2-32.7-27-40.9-44.5-40.9c-44.2,0-54.4,45.3-54.4,75.6c0,27.9,8.4,72.6,52.1,72.6
		c21.3,0,43.9-11.8,46.4-40.1h-18.9c-0.5,3.4-1.5,9.6-6,15.2c-5.3,6.4-12.6,8.6-20.1,8.6c-28.4,0-35.1-29.3-35.1-56.5
		c0-23.9,5.3-59.5,35.3-59.5c23.9,0,26.1,20,26.8,24.9H894.7z M726.3,153.7V26.6h41.6v-17H667.6v17h41.6v127.1H726.3z M597.8,29.4
		l22.9,70.6h-47L597.8,29.4z M537.1,153.7h17.7l13.4-37.5h57.6l13.4,37.5H658L607.8,9.6h-18.4L537.1,153.7z M354.6,9.6l35.3,144.1
		h18.6l30.8-123.1l28.7,123.1H487L523.8,9.6H507l-28.2,119.5l-28-119.5h-21.3l-29.6,118.5L373,9.6H354.6z M201,153.7h79.3v-17.6
		h-62.1V88.2H276V71.5h-57.8V26.6h60.7v-17H201V153.7z M164.4,48.5c-2.2-32.7-27-40.9-44.5-40.9c-44.2,0-54.4,45.3-54.4,75.6
		c0,27.9,8.4,72.6,52.1,72.6c21.3,0,43.9-11.8,46.4-40.1h-18.9c-0.5,3.4-1.5,9.6-6,15.2c-5.3,6.4-12.6,8.6-20.1,8.6
		c-28.4,0-35.1-29.3-35.1-56.5c0-23.9,5.3-59.5,35.3-59.5c23.9,0,26.1,20,26.8,24.9H164.4z M6.1,153.7h17.2V9.6H6.1V153.7z"/>
</g>
</svg>
